<svg xmlns="http://www.w3.org/2000/svg" xmlns:xlink="http://www.w3.org/1999/xlink" width="800" zoomAndPan="magnify" viewBox="0 0 600 225" height="300" preserveAspectRatio="xMidYMid meet" version="1.2"><defs><clipPath id="6398adcb92"><path d="M 0 91.832031 L 60.476562 91.832031 L 60.476562 112.367188 L 0 112.367188 Z M 0 91.832031 "/></clipPath><clipPath id="1b01d5b587"><path d="M 3 91.832031 L 57.429688 91.832031 C 59.085938 91.832031 60.429688 93.175781 60.429688 94.832031 L 60.429688 109.367188 C 60.429688 111.023438 59.085938 112.367188 57.429688 112.367188 L 3 112.367188 C 1.34375 112.367188 0 111.023438 0 109.367188 L 0 94.832031 C 0 93.175781 1.34375 91.832031 3 91.832031 Z M 3 91.832031 "/></clipPath><clipPath id="df977552d8"><path d="M 0 105.699219 L 22.152344 105.699219 L 22.152344 157.972656 L 0 157.972656 Z M 0 105.699219 "/></clipPath><clipPath id="571f09d99c"><path d="M -0.00390625 154.972656 L -0.00390625 108.757812 C -0.00390625 107.101562 1.339844 105.757812 2.996094 105.757812 L 19.152344 105.757812 C 20.808594 105.757812 22.152344 107.101562 22.152344 108.757812 L 22.152344 154.972656 C 22.152344 156.628906 20.808594 157.972656 19.152344 157.972656 L 2.996094 157.972656 C 1.339844 157.972656 -0.00390625 156.628906 -0.00390625 154.972656 Z M -0.00390625 154.972656 "/></clipPath><clipPath id="239278ce63"><path d="M 0 58.894531 L 75.316406 58.894531 L 75.316406 79.429688 L 0 79.429688 Z M 0 58.894531 "/></clipPath><clipPath id="0ebf46f247"><path d="M 3 58.894531 L 72.246094 58.894531 C 73.90625 58.894531 75.246094 60.238281 75.246094 61.894531 L 75.246094 76.429688 C 75.246094 78.085938 73.90625 79.429688 72.246094 79.429688 L 3 79.429688 C 1.34375 79.429688 0 78.085938 0 76.429688 L 0 61.894531 C 0 60.238281 1.34375 58.894531 3 58.894531 Z M 3 58.894531 "/></clipPath></defs><g id="b1555334c0"><g clip-rule="nonzero" clip-path="url(#6398adcb92)"><g clip-rule="nonzero" clip-path="url(#1b01d5b587)"><path style=" stroke:none;fill-rule:nonzero;fill:#38b6ff;fill-opacity:1;" d="M 0 91.832031 L 60.398438 91.832031 L 60.398438 112.367188 L 0 112.367188 Z M 0 91.832031 "/></g></g><g clip-rule="nonzero" clip-path="url(#df977552d8)"><g clip-rule="nonzero" clip-path="url(#571f09d99c)"><path style=" stroke:none;fill-rule:nonzero;fill:#38b6ff;fill-opacity:1;" d="M -0.00390625 157.972656 L -0.00390625 105.785156 L 22.152344 105.785156 L 22.152344 157.972656 Z M -0.00390625 157.972656 "/></g></g><g clip-rule="nonzero" clip-path="url(#239278ce63)"><g clip-rule="nonzero" clip-path="url(#0ebf46f247)"><path style=" stroke:none;fill-rule:nonzero;fill:#22c55e;fill-opacity:1;" d="M 0 58.894531 L 75.238281 58.894531 L 75.238281 79.429688 L 0 79.429688 Z M 0 58.894531 "/></g></g><g style="fill:#ffffff;fill-opacity:1;"><g transform="translate(91.967962, 158.416622)"><path style="stroke:none" d="M 9.703125 0 L 9.703125 -99.84375 L 70.71875 -99.84375 L 70.71875 -80.984375 L 28.5625 -80.984375 L 28.5625 -59.359375 L 62.40625 -59.359375 L 62.40625 -40.5 L 28.5625 -40.5 L 28.5625 0 Z M 9.703125 0 "/></g></g><g style="fill:#ffffff;fill-opacity:1;"><g transform="translate(165.461986, 158.416622)"><path style="stroke:none" d="M 11.09375 0 L 11.09375 -99.84375 L 29.953125 -99.84375 L 29.953125 -17.609375 L 72.9375 -17.609375 L 72.9375 0 Z M 11.09375 0 "/></g></g><g style="fill:#ffffff;fill-opacity:1;"><g transform="translate(240.481364, 158.416622)"><path style="stroke:none" d="M 9.703125 0 L 9.703125 -99.84375 L 74.890625 -99.84375 L 74.890625 -82.234375 L 28.5625 -82.234375 L 28.5625 -60.875 L 66.5625 -60.875 L 66.5625 -43.265625 L 28.5625 -43.265625 L 28.5625 -17.609375 L 74.890625 -17.609375 L 74.890625 0 Z M 9.703125 0 "/></g></g><g style="fill:#ffffff;fill-opacity:1;"><g transform="translate(322.295467, 158.416622)"><path style="stroke:none" d="M 1.390625 0 L 34.953125 -50.484375 L 2.359375 -99.84375 L 25.515625 -99.84375 L 46.734375 -66.5625 L 67.671875 -99.84375 L 90.96875 -99.84375 L 58.375 -50.484375 L 91.796875 0 L 68.640625 0 L 46.734375 -34.390625 L 24.6875 0 Z M 1.390625 0 "/></g></g><g style="fill:#ffffff;fill-opacity:1;"><g transform="translate(421.027345, 158.416622)"><path style="stroke:none" d="M 32.859375 0 L 32.859375 -82.234375 L 1.390625 -82.234375 L 1.390625 -99.84375 L 83.203125 -99.84375 L 83.203125 -82.234375 L 51.71875 -82.234375 L 51.71875 0 Z M 32.859375 0 "/></g></g><g style="fill:#ffffff;fill-opacity:1;"><g transform="translate(502.841306, 158.416622)"><path style="stroke:none" d="M 2.78125 0 L 33.28125 -99.84375 L 61.4375 -99.84375 L 91.9375 0 L 72.53125 0 L 45.34375 -88.0625 L 48.953125 -88.0625 L 22.1875 0 Z M 21.078125 -20.796875 L 21.078125 -38.40625 L 73.78125 -38.40625 L 73.78125 -20.796875 Z M 21.078125 -20.796875 "/></g></g></g></svg>