<svg xmlns="http://www.w3.org/2000/svg" xmlns:xlink="http://www.w3.org/1999/xlink" width="192" zoomAndPan="magnify" viewBox="0 0 144 143.999998" height="192" preserveAspectRatio="xMidYMid meet" version="1.2"><defs><clipPath id="eea1aa83c3"><path d="M 32.261719 59.738281 L 96.136719 59.738281 L 96.136719 81.425781 L 32.261719 81.425781 Z M 32.261719 59.738281 "/></clipPath><clipPath id="ef60a64e49"><path d="M 36.761719 59.738281 L 91.585938 59.738281 C 92.78125 59.738281 93.925781 60.214844 94.769531 61.058594 C 95.613281 61.902344 96.085938 63.046875 96.085938 64.238281 L 96.085938 76.925781 C 96.085938 78.121094 95.613281 79.265625 94.769531 80.109375 C 93.925781 80.953125 92.78125 81.425781 91.585938 81.425781 L 36.761719 81.425781 C 35.570312 81.425781 34.425781 80.953125 33.582031 80.109375 C 32.738281 79.265625 32.261719 78.121094 32.261719 76.925781 L 32.261719 64.238281 C 32.261719 63.046875 32.738281 61.902344 33.582031 61.058594 C 34.425781 60.214844 35.570312 59.738281 36.761719 59.738281 Z M 36.761719 59.738281 "/></clipPath><clipPath id="0c39234333"><path d="M 32.261719 67 L 55.664062 67 L 55.664062 122.117188 L 32.261719 122.117188 Z M 32.261719 67 "/></clipPath><clipPath id="15d0152fd5"><path d="M 32.261719 117.617188 L 32.261719 71.472656 C 32.261719 70.28125 32.738281 69.136719 33.582031 68.292969 C 34.425781 67.449219 35.570312 66.972656 36.761719 66.972656 L 51.164062 66.972656 C 52.355469 66.972656 53.5 67.449219 54.34375 68.292969 C 55.1875 69.136719 55.664062 70.28125 55.664062 71.472656 L 55.664062 117.617188 C 55.664062 118.8125 55.1875 119.957031 54.34375 120.800781 C 53.5 121.644531 52.355469 122.117188 51.164062 122.117188 L 36.761719 122.117188 C 35.570312 122.117188 34.425781 121.644531 33.582031 120.800781 C 32.738281 119.957031 32.261719 118.8125 32.261719 117.617188 Z M 32.261719 117.617188 "/></clipPath><clipPath id="d86266643a"><path d="M 32.261719 24.953125 L 111.808594 24.953125 L 111.808594 46.636719 L 32.261719 46.636719 Z M 32.261719 24.953125 "/></clipPath><clipPath id="05dc9b6eda"><path d="M 36.761719 24.953125 L 107.238281 24.953125 C 108.429688 24.953125 109.574219 25.425781 110.417969 26.269531 C 111.261719 27.113281 111.738281 28.257812 111.738281 29.453125 L 111.738281 42.136719 C 111.738281 43.332031 111.261719 44.476562 110.417969 45.320312 C 109.574219 46.164062 108.429688 46.636719 107.238281 46.636719 L 36.761719 46.636719 C 35.570312 46.636719 34.425781 46.164062 33.582031 45.320312 C 32.738281 44.476562 32.261719 43.332031 32.261719 42.136719 L 32.261719 29.453125 C 32.261719 28.257812 32.738281 27.113281 33.582031 26.269531 C 34.425781 25.425781 35.570312 24.953125 36.761719 24.953125 Z M 36.761719 24.953125 "/></clipPath></defs><g id="2f31f7a532"><rect x="0" width="144" y="0" height="143.999998" style="fill:#ffffff;fill-opacity:1;stroke:none;"/><rect x="0" width="144" y="0" height="143.999998" style="fill:#ffffff;fill-opacity:1;stroke:none;"/><g clip-rule="nonzero" clip-path="url(#eea1aa83c3)"><g clip-rule="nonzero" clip-path="url(#ef60a64e49)"><path style=" stroke:none;fill-rule:nonzero;fill:#38b6ff;fill-opacity:1;" d="M 32.261719 59.738281 L 96.054688 59.738281 L 96.054688 81.425781 L 32.261719 81.425781 Z M 32.261719 59.738281 "/></g></g><g clip-rule="nonzero" clip-path="url(#0c39234333)"><g clip-rule="nonzero" clip-path="url(#15d0152fd5)"><path style=" stroke:none;fill-rule:nonzero;fill:#38b6ff;fill-opacity:1;" d="M 32.261719 122.117188 L 32.261719 67 L 55.664062 67 L 55.664062 122.117188 Z M 32.261719 122.117188 "/></g></g><g clip-rule="nonzero" clip-path="url(#d86266643a)"><g clip-rule="nonzero" clip-path="url(#05dc9b6eda)"><path style=" stroke:none;fill-rule:nonzero;fill:#22c55e;fill-opacity:1;" d="M 32.261719 24.953125 L 111.726562 24.953125 L 111.726562 46.636719 L 32.261719 46.636719 Z M 32.261719 24.953125 "/></g></g></g></svg>