<svg xmlns="http://www.w3.org/2000/svg" xmlns:xlink="http://www.w3.org/1999/xlink" width="800" zoomAndPan="magnify" viewBox="0 0 600 225" height="300" preserveAspectRatio="xMidYMid meet" version="1.2"><defs><clipPath id="821a5a1861"><path d="M 0 98.964844 L 60.476562 98.964844 L 60.476562 119.496094 L 0 119.496094 Z M 0 98.964844 "/></clipPath><clipPath id="420f546567"><path d="M 3 98.964844 L 57.429688 98.964844 C 59.085938 98.964844 60.429688 100.308594 60.429688 101.964844 L 60.429688 116.496094 C 60.429688 118.15625 59.085938 119.496094 57.429688 119.496094 L 3 119.496094 C 1.34375 119.496094 0 118.15625 0 116.496094 L 0 101.964844 C 0 100.308594 1.34375 98.964844 3 98.964844 Z M 3 98.964844 "/></clipPath><clipPath id="689565abe3"><path d="M 0 112.828125 L 22.152344 112.828125 L 22.152344 165.101562 L 0 165.101562 Z M 0 112.828125 "/></clipPath><clipPath id="88c76ce8bd"><path d="M -0.00390625 162.101562 L -0.00390625 115.890625 C -0.00390625 114.234375 1.339844 112.890625 2.996094 112.890625 L 19.152344 112.890625 C 20.808594 112.890625 22.152344 114.234375 22.152344 115.890625 L 22.152344 162.101562 C 22.152344 163.761719 20.808594 165.101562 19.152344 165.101562 L 2.996094 165.101562 C 1.339844 165.101562 -0.00390625 163.761719 -0.00390625 162.101562 Z M -0.00390625 162.101562 "/></clipPath><clipPath id="f640e02b65"><path d="M 0 66.027344 L 75.316406 66.027344 L 75.316406 86.558594 L 0 86.558594 Z M 0 66.027344 "/></clipPath><clipPath id="6cf1777281"><path d="M 3 66.027344 L 72.246094 66.027344 C 73.90625 66.027344 75.246094 67.371094 75.246094 69.027344 L 75.246094 83.558594 C 75.246094 85.21875 73.90625 86.558594 72.246094 86.558594 L 3 86.558594 C 1.34375 86.558594 0 85.21875 0 83.558594 L 0 69.027344 C 0 67.371094 1.34375 66.027344 3 66.027344 Z M 3 66.027344 "/></clipPath></defs><g id="c26059b958"><g clip-rule="nonzero" clip-path="url(#821a5a1861)"><g clip-rule="nonzero" clip-path="url(#420f546567)"><path style=" stroke:none;fill-rule:nonzero;fill:#38b6ff;fill-opacity:1;" d="M 0 98.964844 L 60.398438 98.964844 L 60.398438 119.496094 L 0 119.496094 Z M 0 98.964844 "/></g></g><g clip-rule="nonzero" clip-path="url(#689565abe3)"><g clip-rule="nonzero" clip-path="url(#88c76ce8bd)"><path style=" stroke:none;fill-rule:nonzero;fill:#38b6ff;fill-opacity:1;" d="M -0.00390625 165.101562 L -0.00390625 112.917969 L 22.152344 112.917969 L 22.152344 165.101562 Z M -0.00390625 165.101562 "/></g></g><g clip-rule="nonzero" clip-path="url(#f640e02b65)"><g clip-rule="nonzero" clip-path="url(#6cf1777281)"><path style=" stroke:none;fill-rule:nonzero;fill:#22c55e;fill-opacity:1;" d="M 0 66.027344 L 75.238281 66.027344 L 75.238281 86.558594 L 0 86.558594 Z M 0 66.027344 "/></g></g><g style="fill:#1f2937;fill-opacity:1;"><g transform="translate(91.967962, 165.548716)"><path style="stroke:none" d="M 9.703125 0 L 9.703125 -99.84375 L 70.71875 -99.84375 L 70.71875 -80.984375 L 28.5625 -80.984375 L 28.5625 -59.359375 L 62.40625 -59.359375 L 62.40625 -40.5 L 28.5625 -40.5 L 28.5625 0 Z M 9.703125 0 "/></g></g><g style="fill:#1f2937;fill-opacity:1;"><g transform="translate(165.461986, 165.548716)"><path style="stroke:none" d="M 11.09375 0 L 11.09375 -99.84375 L 29.953125 -99.84375 L 29.953125 -17.609375 L 72.9375 -17.609375 L 72.9375 0 Z M 11.09375 0 "/></g></g><g style="fill:#1f2937;fill-opacity:1;"><g transform="translate(240.481364, 165.548716)"><path style="stroke:none" d="M 9.703125 0 L 9.703125 -99.84375 L 74.890625 -99.84375 L 74.890625 -82.234375 L 28.5625 -82.234375 L 28.5625 -60.875 L 66.5625 -60.875 L 66.5625 -43.265625 L 28.5625 -43.265625 L 28.5625 -17.609375 L 74.890625 -17.609375 L 74.890625 0 Z M 9.703125 0 "/></g></g><g style="fill:#1f2937;fill-opacity:1;"><g transform="translate(322.295467, 165.548716)"><path style="stroke:none" d="M 1.390625 0 L 34.953125 -50.484375 L 2.359375 -99.84375 L 25.515625 -99.84375 L 46.734375 -66.5625 L 67.671875 -99.84375 L 90.96875 -99.84375 L 58.375 -50.484375 L 91.796875 0 L 68.640625 0 L 46.734375 -34.390625 L 24.6875 0 Z M 1.390625 0 "/></g></g><g style="fill:#1f2937;fill-opacity:1;"><g transform="translate(421.027345, 165.548716)"><path style="stroke:none" d="M 32.859375 0 L 32.859375 -82.234375 L 1.390625 -82.234375 L 1.390625 -99.84375 L 83.203125 -99.84375 L 83.203125 -82.234375 L 51.71875 -82.234375 L 51.71875 0 Z M 32.859375 0 "/></g></g><g style="fill:#1f2937;fill-opacity:1;"><g transform="translate(502.841306, 165.548716)"><path style="stroke:none" d="M 2.78125 0 L 33.28125 -99.84375 L 61.4375 -99.84375 L 91.9375 0 L 72.53125 0 L 45.34375 -88.0625 L 48.953125 -88.0625 L 22.1875 0 Z M 21.078125 -20.796875 L 21.078125 -38.40625 L 73.78125 -38.40625 L 73.78125 -20.796875 Z M 21.078125 -20.796875 "/></g></g></g></svg>